<?xml version="1.0" encoding="utf-8"?>
<!-- Generator: Adobe Illustrator 23.0.0, SVG Export Plug-In . SVG Version: 6.00 Build 0)  -->
<svg version="1.1" id="Layer_1" xmlns="http://www.w3.org/2000/svg" xmlns:xlink="http://www.w3.org/1999/xlink" x="0px" y="0px"
	 viewBox="0 0 158 89" style="enable-background:new 0 0 158 89;" xml:space="preserve">
<style type="text/css">
	.st0{fill-rule:evenodd;clip-rule:evenodd;fill:#FCB823;}
	.st1{fill:#007DB0;}
	.st2{fill-rule:evenodd;clip-rule:evenodd;fill:#007DB0;}
	.st3{fill-rule:evenodd;clip-rule:evenodd;fill:#231F20;}
	.st4{fill:#666667;}
</style>
<g>
	<path class="st0" d="M63.69,74.72c-6.09,4.1-13.43,6.48-21.33,6.48c-9.3,0-17.82-3.3-24.45-8.82h24.41c0,0,0.35,0.53,1.19,1.38
		c0.13,0.13,1.08,0.95,2.22,0.95L63.69,74.72"/>
	<path class="st0" d="M25.01,22.6c3.53-9.61,9.43-16.12,16.19-16.79V22.6H25.01"/>
	<path class="st0" d="M59.71,22.6C56.18,13,50.29,6.49,43.54,5.81V22.6L59.71,22.6"/>
	<path class="st0" d="M36.68,5c-11.31,1.68-21,8.31-26.82,17.6h12.87C25.22,14.9,29.78,8.17,36.68,5L36.68,5"/>
	<path class="st0" d="M24.22,24.93c-1.66,5.32-2.63,11.44-2.68,17.96h-2.31c0-6.49,0.97-12.6,2.7-17.96H8.51
		C5.66,30.29,4.05,36.4,4.05,42.89c0,1.82,0.12,3.6,0.37,5.34h26.45v-7.68h5.54c0,0-6.02-2.15-6.02-7.85c0-6.26,3.01-7.78,3.01-7.78
		L24.22,24.93"/>
	<path class="st0" d="M48.1,5.01c7.9,3.73,12.69,11.31,15.2,21.64h13.77C71.73,15.27,60.97,6.94,48.1,5.01L48.1,5.01"/>
	<path class="st1" d="M33.21,42.46h18.08c1.48,0,2.99-0.45,2.99-1.72c0-1.21-1.51-1.63-2.99-1.63c-1.02,0-5.81,0-9.33,0
		c-7.93,0-9.22-4.23-9.22-6.86c0-2.48,0.38-7.31,9.2-7.31h17.99v5.78H42.38c-1.57,0-2.65,0.24-2.65,1.3c0,0.98,1.1,1.31,2.65,1.31
		c0.51,0,7.42,0,8.35,0c6.53,0,10.93,1.33,10.93,7.42c0,3.57-1.4,7.5-10.97,7.5H33.21V42.46"/>
	<path class="st1" d="M100.92,42.04c0-5.02,3.56-6.03,7.04-6.03c3.84,0,12.75-0.01,12.75-0.01c0-1.64-1.26-1.71-1.81-1.71h-16.67
		v-5.31h19.68c4.29,0,4.93,1.53,4.93,4.52v14.73l-18.89,0c-4.28,0.04-7.03-1.74-7.03-6.1V42.04 M117.3,43.55
		c2.86,0,3.41-0.54,3.41-1.42c0-0.99-0.58-1.35-3.42-1.35h-6.75c-2.84,0-3.43,0.46-3.43,1.36c0,0.87,0.6,1.42,3.43,1.42H117.3z"/>
	<path class="st1" d="M75.71,66.2c0-5.02,3.56-6.03,7.05-6.03c3.84,0,12.75-0.01,12.75-0.01c0-1.64-1.26-1.71-1.82-1.71H77.02v-5.31
		h19.68c4.29,0,4.93,1.52,4.93,4.52v14.73H82.74c-4.28,0.04-7.03-1.74-7.03-6.11V66.2 M92.1,67.7c2.85,0,3.41-0.53,3.41-1.42
		c0-1-0.59-1.35-3.43-1.35h-6.74c-2.84,0-3.43,0.46-3.43,1.36c0,0.87,0.6,1.41,3.43,1.41H92.1z"/>
	<path class="st1" d="M63.6,33.54c0-1.82,0.35-3.03,1.07-3.65c0.71-0.6,2.06-0.91,4.04-0.91h15.19c1.98,0,3.33,0.31,4.04,0.91
		c0.71,0.61,1.07,1.82,1.07,3.65v10.15c0,1.79-0.36,3-1.09,3.62c-0.73,0.63-2.07,0.93-4.02,0.93H68.71c-1.98,0-3.33-0.3-4.04-0.93
		c-0.71-0.62-1.07-1.83-1.07-3.62V33.54 M69.72,35.77v5.71c0,0.77,0.74,1.44,1.44,1.44h10.28c0.65,0,1.45-0.62,1.45-1.48v-5.68
		c0-0.73-0.64-1.47-1.5-1.47H71.23C70.47,34.29,69.72,34.91,69.72,35.77"/>
	<path class="st1" d="M68.51,58.47c2.84,0,3.96,0.71,4.42,1.65c0.58,1.16,0.51,3.06,0.51,3.6v3.47c0,2.04-0.42,3.42-1.24,4.13
		c-0.83,0.71-2.36,1.07-4.59,1.07H50.24c-2.26,0-3.8-0.36-4.62-1.07c-0.81-0.71-1.22-2.09-1.22-4.13v-11.6
		c0-2.08,0.41-3.46,1.22-4.16c0.81-0.7,2.35-1.04,4.62-1.04H73.1l-0.01,5.79c0,0-20.55,0-20.63,0c-0.86,0-1.72,0.71-1.72,1.69v7.16
		c0,0.88,0.84,1.64,1.65,1.64h13.19c0.89,0,1.49-0.36,1.49-1.23c0-0.92-0.74-1.22-1.49-1.22h-5.49l0-5.74
		C60.08,58.47,67.65,58.47,68.51,58.47"/>
	<path class="st1" d="M122.46,57.69c0-1.82,0.36-3.03,1.07-3.64c0.71-0.6,2.06-0.91,4.05-0.91h12.69c0.62,0,1.48-0.56,1.48-1.46
		c0-1.07,0-14.19,0-14.19h6.12v30.35c0,1.8-0.36,3-1.09,3.62c-0.73,0.63-2.06,0.94-4.02,0.94h-15.19c-1.98,0-3.33-0.31-4.05-0.94
		c-0.71-0.61-1.07-1.82-1.07-3.62V57.69 M128.58,59.92v5.71c0,0.76,0.73,1.44,1.44,1.44h10.28c0.65,0,1.45-0.61,1.45-1.48v-5.68
		c0-0.72-0.64-1.47-1.5-1.47h-10.17C129.34,58.44,128.58,59.07,128.58,59.92"/>
	<path class="st1" d="M146.22,34.29h-8.45c-0.76,0-1.51,0.63-1.51,1.48v12.47h-6.12v-14.7c0-1.82,0.35-3.03,1.07-3.65
		c0.71-0.6,2.06-0.91,4.04-0.91h10.98V34.29"/>
	<path class="st1" d="M120.21,58.44h-8.45c-0.76,0-1.51,0.62-1.51,1.48v12.47h-6.13v-14.7c0-1.82,0.36-3.03,1.07-3.64
		c0.71-0.6,2.06-0.91,4.04-0.91h10.97V58.44"/>
	<rect x="91.85" y="22.6" class="st1" width="6.33" height="25.64"/>
	<path class="st2" d="M7.15,58.01c-1.04-2.42-1.84-4.98-2.37-7.63h37.43c0,0-0.05,0.04-0.07,0.07c-0.05,0.06-0.07,0.1-0.07,0.15
		v7.41H7.15"/>
	<path class="st2" d="M15.34,70.05c-2.84-2.83-5.24-6.1-7.09-9.7h33.82v9.7H15.34"/>
	<path class="st3" d="M150.88,28.62c1.66,0,3-1.35,3-3.02c0-1.65-1.35-3.01-3-3.01c-1.67,0-3.03,1.36-3.03,3.01
		C147.85,27.27,149.21,28.62,150.88,28.62 M150.88,28.22c-1.48,0-2.55-1.14-2.55-2.63c0-1.46,1.07-2.61,2.55-2.61
		c1.46,0,2.53,1.14,2.53,2.61C153.4,27.08,152.34,28.22,150.88,28.22 M151.36,25.74c0.6-0.02,1.06-0.26,1.06-0.92
		c0-0.56-0.3-0.89-1.2-0.89h-1.47v3.36h0.41v-1.55h0.76l0.96,1.55h0.49L151.36,25.74z M150.17,25.41v-1.19h0.96
		c0.42,0,0.84,0.07,0.84,0.59c0,0.68-0.69,0.6-1.18,0.6H150.17z"/>
	<path class="st4" d="M80.19,85.13c-1.39,0-2.49-1.02-2.56-2.4h1.53c0.05,0.59,0.41,1.05,1.04,1.05c0.56,0,1.08-0.39,1.08-0.98
		c0-0.89-0.81-1.06-1.49-1.32c-0.24-0.1-0.47-0.19-0.71-0.3c-0.79-0.41-1.16-1.06-1.16-1.96c0-1.3,1.02-2.24,2.3-2.24
		c1.27,0,2.26,0.96,2.32,2.24h-1.48c-0.04-0.53-0.33-0.88-0.88-0.88c-0.45,0-0.8,0.33-0.8,0.8c0,0.75,0.72,0.9,1.3,1.09
		c1.19,0.39,2.06,1.04,2.06,2.42C82.74,84.12,81.66,85.13,80.19,85.13"/>
	<path class="st4" d="M88.47,84.98l-0.83-2.03h-2.81l-0.84,2.03h-1.6l3.26-7.84h1.14l3.28,7.84H88.47z M86.23,79.18h-0.03
		l-0.89,2.41h1.8L86.23,79.18z"/>
	<rect x="90.4" y="77.14" class="st4" width="1.45" height="7.84"/>
	<polygon class="st4" points="97.62,84.98 94.34,79.28 94.32,79.28 94.32,84.98 92.87,84.98 92.87,77.14 94.52,77.14 97.76,82.83 
		97.79,82.83 97.79,77.14 99.24,77.14 99.24,84.98 	"/>
	<polygon class="st4" points="103.34,78.49 103.34,84.98 101.89,84.98 101.89,78.49 99.74,78.49 99.74,77.14 105.49,77.14 
		105.49,78.49 	"/>
	<rect x="104.73" y="81.07" class="st4" width="2.94" height="1.25"/>
	<path class="st4" d="M112.67,85.13c-2.28,0-4.22-1.76-4.22-4.08c0-2.28,1.93-4.07,4.18-4.07c1.54,0,3.26,0.95,3.8,2.46h-1.73
		c-0.46-0.7-1.27-1.1-2.1-1.1c-1.51,0-2.69,1.23-2.69,2.73c0,0.36,0.08,0.73,0.22,1.06c0.45,1.06,1.4,1.65,2.54,1.65
		c1,0,1.87-0.55,2.32-1.44h-3.29v-1.36h5.12v0.17C116.82,83.38,114.86,85.13,112.67,85.13"/>
	<path class="st4" d="M121.26,85.13c-2.25,0-4.1-1.8-4.1-4.05c0-2.28,1.83-4.1,4.1-4.1c2.27,0,4.1,1.82,4.1,4.1
		C125.36,83.33,123.5,85.13,121.26,85.13 M121.26,78.33c-1.51,0-2.65,1.26-2.65,2.73c0,1.46,1.16,2.71,2.65,2.71
		c1.48,0,2.65-1.25,2.65-2.71C123.91,79.59,122.76,78.33,121.26,78.33"/>
	<path class="st4" d="M130.13,84.5c-0.56,0.39-1.36,0.47-2.02,0.47H126v-7.84h1.7c0.8,0,1.63,0.03,2.27,0.6
		c0.4,0.35,0.67,0.93,0.67,1.46c0,0.68-0.3,1.17-0.88,1.5c0.91,0.33,1.34,0.97,1.34,1.95C131.1,83.41,130.75,84.08,130.13,84.5
		 M128.06,78.49h-0.6v1.7h0.55c0.56,0,1.18-0.16,1.18-0.85C129.18,78.68,128.62,78.49,128.06,78.49 M128.22,81.54h-0.76v2.08h0.73
		c0.69,0,1.46-0.18,1.46-1.03C129.65,81.8,128.9,81.54,128.22,81.54"/>
	<path class="st4" d="M136.86,84.98l-0.84-2.03h-2.81l-0.84,2.03h-1.6l3.26-7.84h1.13l3.28,7.84H136.86z M134.62,79.18h-0.02
		l-0.89,2.41h1.8L134.62,79.18z"/>
	<rect x="138.98" y="77.14" class="st4" width="1.45" height="7.84"/>
	<polygon class="st4" points="145.85,84.98 142.58,79.28 142.56,79.28 142.56,84.98 141.11,84.98 141.11,77.14 142.76,77.14 
		146,82.83 146.02,82.83 146.02,77.14 147.48,77.14 147.48,84.98 	"/>
</g>
</svg>
